<svg width="187" height="187" viewBox="0 0 187 187" fill="none" xmlns="http://www.w3.org/2000/svg">
<mask id="mask0_2_151" style="mask-type:luminance" maskUnits="userSpaceOnUse" x="0" y="0" width="187" height="187">
<path d="M22.4285 0.656039L186.546 22.1153L165.086 186.232L0.969238 164.773L22.4285 0.656039Z" fill="white"/>
</mask>
<g mask="url(#mask0_2_151)">
<path d="M175.553 104.14C169.647 149.314 128.237 181.148 83.0616 175.241C37.8869 169.334 6.05415 127.924 11.961 82.7489C17.8679 37.5742 59.2777 5.74086 104.452 11.6477C149.628 17.5547 181.46 58.9649 175.553 104.14Z" fill="#F04E58"/>
<path d="M49.11 51.2689C48.4823 56.0695 51.4395 60.0698 55.9709 60.6623C58.6325 61.0104 60.7522 60.0831 62.2897 58.4288L65.5216 58.8514C63.3986 62.0242 59.8969 63.91 55.6194 63.3507C49.5041 62.551 45.4377 57.1693 46.258 50.896C47.0783 44.6227 52.3917 40.4669 58.5071 41.2665C62.7846 41.8258 65.6836 44.549 66.9194 48.161L63.6875 47.7385C62.627 45.7444 60.817 44.3033 58.1555 43.9553C53.6241 43.3628 49.7378 46.4678 49.11 51.2689Z" fill="black"/>
<path d="M91.8193 52.6866L89.8942 67.4094L87.1692 67.0531L87.9811 60.8438L79.4576 59.7293L78.6457 65.9386L75.9207 65.5823L77.8457 50.8595L80.5708 51.2158L79.7756 57.297L88.2991 58.4115L89.0943 52.3303L91.8193 52.6866Z" fill="black"/>
<path d="M105.936 62.5404L101.309 61.9355C99.0597 61.6413 97.5653 62.2271 97.356 63.8278C97.1468 65.428 98.4445 66.3464 100.536 66.6198C103.483 67.0052 105.521 65.7093 105.81 63.5005L105.936 62.5404ZM108.991 60.3684L107.765 69.746L105.04 69.3897L105.249 67.7895C103.946 68.8885 102.166 69.437 99.9161 69.1429C96.4938 68.6954 94.1999 66.7679 94.631 63.4715C95.0955 59.9186 98.2965 59.1002 101.655 59.5394L106.25 60.1401C106.568 57.7078 104.847 56.5714 102.439 56.2565C100.696 56.0286 98.8254 56.5322 98.071 57.8658L95.0611 57.4722C96.3138 54.5437 99.4149 53.2565 102.774 53.6957C106.893 54.2343 109.473 56.6874 108.991 60.3684Z" fill="black"/>
<path d="M122.721 71.7016L119.964 71.3412L116.515 60.9942L115.243 70.7239L112.518 70.3675L114.443 55.6447L117.548 56.0508L121.735 68.6431L129.05 57.5547L132.092 57.9525L130.167 72.6753L127.442 72.319L128.714 62.5893L122.721 71.7016Z" fill="black"/>
<path d="M135.237 73.3382L137.162 58.6154L139.887 58.9717L138.485 69.694L148.41 60.0862L151.135 60.4425L149.21 75.1653L146.485 74.809L147.887 64.0867L137.962 73.6945L135.237 73.3382Z" fill="black"/>
<path d="M59.7996 90.7785C60.1679 87.9616 58.3969 85.484 55.5454 85.1112C52.7254 84.7424 50.4083 86.6855 50.04 89.5023C49.6801 92.2547 51.4238 94.6967 54.2438 95.0654C57.0953 95.4382 59.4397 93.5308 59.7996 90.7785ZM62.5246 91.1348C61.9805 95.2958 58.2815 98.1974 53.909 97.6257C48.9028 96.9711 46.8258 92.8911 47.508 87.6739C48.3701 81.0806 50.3089 77.5902 55.3548 77.6966L58.4065 77.7702C59.885 77.8007 60.8627 77.4729 61.2311 76.3817L63.9562 76.7381C63.5336 78.7335 62.0637 80.3642 59.0748 80.2994L55.2545 80.1899C52.1387 80.108 51.0687 82.3774 50.6634 84.245C51.7369 83.1809 53.5313 82.2763 56.0979 82.6119C60.2804 83.1588 63.0687 86.9738 62.5246 91.1348Z" fill="white"/>
<path d="M80.572 85.7143L78.6469 100.437L75.9218 100.081L77.5289 87.7903L71.3186 86.9782L70.8205 90.7872C70.3351 94.4996 69.4261 99.2314 64.5783 98.5975L63.6597 98.4774L63.9986 95.8851L64.5689 95.9597C67.2934 96.3159 67.7649 92.9592 68.0955 90.4309L68.9116 84.1896L80.572 85.7143Z" fill="white"/>
<path d="M83.7163 101.1L85.6414 86.3772L88.3664 86.7335L86.9644 97.4558L96.89 87.848L99.615 88.2043L97.6899 102.927L94.9649 102.571L96.3669 91.8485L86.4414 101.456L83.7163 101.1Z" fill="white"/>
<path d="M114.856 90.1971L114.04 96.4384L121.066 91.0092L124.52 91.4608L116.198 97.925L122.595 106.184L118.951 105.707L113.709 98.9667L112.931 104.92L110.206 104.564L110.984 98.6104L104.185 103.776L100.542 103.3L108.847 96.9638L102.467 88.5772L105.921 89.0288L111.315 96.0821L112.131 89.8408L114.856 90.1971Z" fill="white"/>
<path d="M128.173 98.0259L137.109 99.1942C137.058 96.8759 135.678 95.101 133.302 94.7903C130.798 94.463 128.787 95.7945 128.173 98.0259ZM136.221 103.766L139.168 104.151C137.782 106.867 134.961 108.224 131.761 107.805C127.357 107.229 124.551 103.542 125.146 98.9971C125.723 94.5806 129.232 91.6536 133.637 92.2295C137.819 92.7764 140.358 96.5268 139.806 100.751C139.76 101.103 139.701 101.551 139.583 101.959L127.828 100.422C127.831 102.864 129.593 104.918 132.096 105.245C133.807 105.469 135.289 104.979 136.221 103.766Z" fill="white"/>
<path d="M41.4883 115.102L40.6471 121.535L48.4908 116.018L52.1345 116.494L43.0923 122.799L50.2094 131.217L46.5657 130.74L40.3542 123.776L39.5632 129.825L36.8381 129.468L38.7632 114.746L41.4883 115.102Z" fill="black"/>
<path d="M73.1933 138.324L73.7207 134.291L60.3494 132.542L62.2745 117.82L64.9995 118.176L63.3924 130.467L71.6625 131.548L73.2696 119.257L75.9946 119.614L74.3876 131.904L76.7637 132.215L75.9184 138.68L73.1933 138.324Z" fill="black"/>
<path d="M83.2916 126.655L92.2269 127.824C92.1757 125.506 90.7963 123.731 88.4201 123.42C85.9165 123.093 83.9056 124.425 83.2916 126.655ZM91.3394 132.396L94.2858 132.781C92.8998 135.497 90.0794 136.853 86.8795 136.435C82.4751 135.859 79.6695 132.172 80.2638 127.627C80.8413 123.21 84.3505 120.283 88.755 120.859C92.9375 121.406 95.4765 125.156 94.9241 129.381C94.8781 129.733 94.8195 130.181 94.7016 130.589L82.9462 129.052C82.9487 131.494 84.7112 133.547 87.2143 133.874C88.9252 134.098 90.4071 133.608 91.3394 132.396Z" fill="black"/>
<path d="M113.067 124.461L111.142 139.184L108.417 138.828L110.024 126.537L103.813 125.725L103.315 129.534C102.83 133.247 101.921 137.978 97.0732 137.345L96.1545 137.224L96.4935 134.632L97.0638 134.707C99.7883 135.063 100.26 131.706 100.59 129.178L101.406 122.937L113.067 124.461Z" fill="black"/>
<path d="M116.211 139.847L118.136 125.124L120.861 125.48L119.459 136.203L129.385 126.595L132.11 126.951L130.185 141.674L127.46 141.318L128.862 130.595L118.936 140.203L116.211 139.847Z" fill="black"/>
<path d="M140.111 136.494L137.259 136.121L139.205 121.238L142.057 121.611L140.111 136.494ZM136.64 139.133L139.936 139.564L139.5 142.892L136.205 142.462L136.64 139.133Z" fill="black"/>
</g>
</svg>
