<svg width="20" height="20" viewBox="0 0 20 20" fill="none" xmlns="http://www.w3.org/2000/svg">
<path opacity="0.1" d="M10 20C15.5228 20 20 15.5228 20 10C20 4.47715 15.5228 0 10 0C4.47715 0 0 4.47715 0 10C0 15.5228 4.47715 20 10 20Z" fill="#292929"/>
<path d="M11.26 14.28C11.07 14.28 10.88 14.21 10.73 14.06L7.19998 10.53C6.90998 10.24 6.90998 9.76 7.19998 9.47L10.73 5.94C11.02 5.65 11.5 5.65 11.79 5.94C12.08 6.23 12.08 6.71 11.79 7L8.78998 10L11.79 13C12.08 13.29 12.08 13.77 11.79 14.06C11.65 14.21 11.46 14.28 11.26 14.28Z" fill="#292929"/>
</svg>
