<svg width="20" height="21" viewBox="0 0 20 21" fill="none" xmlns="http://www.w3.org/2000/svg">
<g clip-path="url(#clip0_5_295)">
<path d="M12.5581 10L4.65116 8.5V19.5835C4.65116 20.0897 5.03286 20.5 5.50372 20.5H19.1474C19.6183 20.5 20 20.0897 20 19.5835V15.5L12.5581 10Z" fill="#185C37"/>
<path d="M12.5581 0.5H5.50372C5.03286 0.5 4.65116 0.910329 4.65116 1.4165V5.5L12.5581 10.5L16.7442 12L20 10.5V5.5L12.5581 0.5Z" fill="#21A366"/>
<path d="M4.65116 5.5H12.5581V10.5H4.65116V5.5Z" fill="#107C41"/>
<path opacity="0.1" d="M10.3102 4.5H4.65116V17H10.3102C10.7805 16.9984 11.1613 16.589 11.1628 16.0835V5.4165C11.1613 4.91101 10.7805 4.50164 10.3102 4.5Z" fill="black"/>
<path opacity="0.2" d="M9.84512 5H4.65116V17.5H9.84512C10.3153 17.4984 10.6961 17.089 10.6977 16.5835V5.9165C10.6961 5.41101 10.3153 5.00164 9.84512 5Z" fill="black"/>
<path opacity="0.2" d="M9.84512 5H4.65116V16.5H9.84512C10.3153 16.4984 10.6961 16.089 10.6977 15.5835V5.9165C10.6961 5.41101 10.3153 5.00164 9.84512 5Z" fill="black"/>
<path opacity="0.2" d="M9.38 5H4.65116V16.5H9.38C9.85022 16.4984 10.231 16.089 10.2326 15.5835V5.9165C10.231 5.41101 9.85022 5.00164 9.38 5Z" fill="black"/>
<path d="M0.852556 5H9.37999C9.85085 5 10.2325 5.41033 10.2325 5.9165V15.0835C10.2325 15.5897 9.85085 16 9.37999 16H0.852556C0.381701 16 0 15.5897 0 15.0835V5.9165C0 5.41033 0.381701 5 0.852556 5Z" fill="url(#paint0_linear_5_295)"/>
<path d="M2.64046 13.479L4.43395 10.4915L2.7907 7.5205H4.11256L5.0093 9.4205C5.0921 9.601 5.14883 9.735 5.17954 9.8235H5.19116C5.25008 9.6795 5.31209 9.53966 5.37721 9.40399L6.33581 7.5215H7.5493L5.86418 10.475L7.5921 13.479H6.30093L5.26512 11.3935C5.21633 11.3048 5.17492 11.2116 5.1414 11.115H5.12606C5.09571 11.2096 5.05545 11.3002 5.00605 11.385L3.93954 13.479H2.64046Z" fill="white"/>
<path d="M19.1474 0.5H12.5581V5.5H20V1.4165C20 0.910329 19.6183 0.5 19.1474 0.5Z" fill="#33C481"/>
<path d="M12.5581 10.5H20V15.5H12.5581V10.5Z" fill="#107C41"/>
</g>
<defs>
<linearGradient id="paint0_linear_5_295" x1="1.7776" y1="4.28387" x2="9.20512" y2="16.2505" gradientUnits="userSpaceOnUse">
<stop stop-color="#18884F"/>
<stop offset="0.5" stop-color="#117E43"/>
<stop offset="1" stop-color="#0B6631"/>
</linearGradient>
<clipPath id="clip0_5_295">
<rect width="20" height="20" fill="white" transform="translate(0 0.5)"/>
</clipPath>
</defs>
</svg>
