<svg width="218" height="218" viewBox="0 0 218 218" fill="none" xmlns="http://www.w3.org/2000/svg">
<g clip-path="url(#clip0_24_330)">
<mask id="mask0_24_330" style="mask-type:luminance" maskUnits="userSpaceOnUse" x="0" y="0" width="218" height="218">
<path d="M-5.84004e-06 45.9823L171.608 -2.89498e-05L217.591 171.608L45.9823 217.591L-5.84004e-06 45.9823Z" fill="white"/>
</mask>
<g mask="url(#mask0_24_330)">
<path d="M194.599 85.8044C207.297 133.192 179.174 181.902 131.786 194.6C84.3982 207.297 35.6885 179.175 22.9909 131.787C10.2933 84.3986 38.4159 35.689 85.8039 22.9914C133.192 10.2938 181.902 38.4163 194.599 85.8044Z" fill="#5DBF89"/>
<path d="M63.9458 85.377C64.9621 89.1701 68.4169 91.2524 71.9953 90.2936C74.0987 89.73 75.3989 88.3785 76.0391 86.6622L78.5924 85.978C77.9841 89.0146 75.9438 91.5119 72.5644 92.4174C67.7341 93.7117 63.0207 90.9364 61.6928 85.9807C60.3649 81.0249 63.0592 76.2647 67.8895 74.9704C71.2689 74.0649 74.2845 75.2075 76.3296 77.5331L73.7763 78.2173C72.3638 77.051 70.562 76.5307 68.4586 77.0943C64.8802 78.0532 62.9294 81.5839 63.9458 85.377Z" fill="white"/>
<path d="M89.9347 74.9442L93.0513 86.5756L90.8997 87.1521L88.2979 77.442L83.3916 78.7567L84.1979 81.7658C84.9838 84.699 85.7691 88.5268 81.9386 89.5532L81.2137 89.7474L80.665 87.6995L81.1149 87.579C83.2677 87.0021 82.5805 84.3411 82.0451 82.3427L80.724 77.4122L89.9347 74.9442Z" fill="white"/>
<path d="M96.709 78.1968L103.768 76.3054C103.011 74.5847 101.427 73.6803 99.5503 74.1832C97.5736 74.7128 96.479 76.335 96.709 78.1968ZM104.517 80.0072L106.845 79.3835C106.647 81.8486 104.953 83.7386 102.427 84.4156C98.947 85.348 95.7029 83.4535 94.7405 79.8619C93.8056 76.3727 95.5301 73.0926 99.0084 72.1606C102.312 71.2754 105.376 73.2995 106.271 76.6379C106.345 76.9153 106.44 77.2699 106.478 77.6112L97.1917 80.0996C97.9509 81.9295 99.9067 82.923 101.885 82.3931C103.235 82.0311 104.194 81.2054 104.517 80.0072Z" fill="white"/>
<path d="M113.036 79.1613L119.042 77.5519L116.955 69.7631L111.95 71.1042L112.723 73.9879C113.149 75.58 113.504 77.5996 113.036 79.1613ZM122.289 82.1564L121.435 78.97L111.774 81.5586L112.628 84.745L110.475 85.3218L109.107 80.2141L110.459 79.8519C111.27 78.577 111.1 76.5364 110.578 74.5898L109.284 69.7595L118.595 67.2647L121.196 76.9747L123.073 76.4719L124.442 81.5796L122.289 82.1564Z" fill="white"/>
<path d="M126.592 77.5886L123.475 65.9573L125.628 65.3804L127.897 73.8507L132.36 63.5765L134.512 63L137.628 74.6313L135.477 75.2079L133.207 66.7376L128.745 77.0118L126.592 77.5886Z" fill="white"/>
<path d="M61.9812 118.388C62.834 118.566 63.857 119.079 64.2296 120.469C64.7783 122.517 63.0524 124.687 59.9492 125.519C56.6952 126.391 54.3392 125.206 53.2967 123.317L55.7499 122.66C56.498 123.653 57.7305 123.944 59.6071 123.441C61.1847 123.019 62.3343 122.007 62.0428 120.919C61.7988 120.009 60.9627 119.691 59.8616 119.986L57.084 120.731L56.5692 118.809L59.2961 118.079C60.3731 117.79 60.9381 117.096 60.6941 116.185C60.403 115.098 58.9428 114.758 57.3171 115.194C55.6153 115.65 54.6669 116.418 54.4393 117.672L52.0622 118.309C52.0797 116.271 53.3772 114.109 56.7566 113.203C58.9588 112.613 62.1085 112.852 62.8334 115.558C63.1656 116.797 62.704 117.68 61.9812 118.388Z" fill="white"/>
<path d="M75.0052 115.332L71.352 116.311C69.5743 116.787 68.6357 117.689 68.9747 118.954C69.3134 120.218 70.5703 120.504 72.2226 120.062C74.5503 119.438 75.6761 117.836 75.2085 116.091L75.0052 115.332ZM76.6229 112.758L78.6081 120.167L76.4552 120.744L76.1162 119.478C75.4809 120.706 74.3155 121.669 72.539 122.145C69.8362 122.869 67.5208 122.134 66.8231 119.531C66.071 116.724 68.216 115.119 70.8681 114.408L74.4972 113.436C73.9821 111.514 72.3418 111.196 70.4398 111.705C69.0625 112.074 67.8165 113.03 67.6649 114.264L65.2865 114.901C65.3194 112.317 67.2442 110.392 69.8975 109.681C73.1515 108.809 75.8437 109.85 76.6229 112.758Z" fill="white"/>
<path d="M92.3482 110.17L98.657 114.795L96.029 115.499L91.4298 112.151L89.0965 117.356L86.618 118.021L89.7655 110.943L83.5521 106.376L86.2296 105.658L90.6774 108.938L92.9124 103.868L95.491 103.177L92.3482 110.17Z" fill="white"/>
<path d="M108.511 105.92C107.895 103.619 105.805 102.228 103.528 102.839C101.251 103.449 100.136 105.698 100.753 107.999C101.362 110.275 103.46 111.691 105.737 111.081C108.014 110.471 109.121 108.196 108.511 105.92ZM110.664 105.344C111.599 108.834 109.732 112.179 106.279 113.105C102.825 114.03 99.5361 112.066 98.6009 108.576C97.6592 105.061 99.5321 101.742 102.986 100.816C106.439 99.8907 109.722 101.829 110.664 105.344Z" fill="white"/>
<path d="M117.39 107.715L123.396 106.106L121.309 98.3173L116.304 99.6584L117.076 102.542C117.503 104.134 117.858 106.154 117.39 107.715ZM126.642 110.711L125.789 107.524L116.128 110.113L116.982 113.299L114.829 113.876L113.46 108.768L114.812 108.406C115.624 107.131 115.453 105.091 114.932 103.144L113.637 98.3137L122.948 95.8189L125.55 105.529L127.427 105.026L128.795 110.134L126.642 110.711Z" fill="white"/>
<path d="M138.548 97.8722C137.931 95.571 135.842 94.1802 133.563 94.7907C131.286 95.4008 130.171 97.6503 130.788 99.9514C131.397 102.227 133.495 103.643 135.772 103.033C138.05 102.423 139.157 100.148 138.548 97.8722ZM140.699 97.2957C141.634 100.786 139.767 104.132 136.314 105.057C132.86 105.982 129.57 104.019 128.635 100.528C127.693 97.0138 129.567 93.6936 133.021 92.7681C136.474 91.8429 139.757 93.7812 140.699 97.2957Z" fill="white"/>
<path d="M153.573 100.08L151.395 100.663L145.606 93.975L147.666 101.663L145.513 102.239L142.396 90.608L144.851 89.9504L151.886 98.0924L153.935 87.5163L156.337 86.8726L159.454 98.5039L157.302 99.0804L155.242 91.393L153.573 100.08Z" fill="white"/>
</g>
<path d="M66.5172 141.998L77.5793 139.034L78.0941 140.955L73.64 142.148L76.2418 151.858L74.0878 152.436L71.486 142.726L67.032 143.919L66.5172 141.998Z" fill="white"/>
<path d="M78.9065 138.678L81.3343 138.028L87.5399 145.769L89.0688 135.955L91.3447 135.345L89.2009 149.063C88.5839 152.97 88.5371 154.093 85.8078 154.824L84.7066 155.119L84.1918 153.198L84.8925 153.01C86.2204 152.654 86.5908 152.039 86.8854 150.037L87.0635 148.796L78.9065 138.678Z" fill="white"/>
<path d="M102.293 143.062C104.521 142.465 105.539 140.16 104.943 137.935C104.347 135.71 102.313 134.223 100.084 134.82C98.082 135.357 96.5708 137.224 97.3096 139.981C98.048 142.736 100.29 143.599 102.293 143.062ZM98.1732 151.511L93.6744 134.721L95.8261 134.145L96.1647 135.409C96.7587 134.219 97.9908 133.212 99.6166 132.776C103.396 131.764 106.235 134.147 107.096 137.358C107.956 140.569 106.689 144.052 102.909 145.065C101.284 145.501 99.7127 145.244 98.6037 144.511L100.325 150.935L98.1732 151.511Z" fill="white"/>
<path d="M119.829 127.713L122.946 139.344L120.794 139.921L119.48 135.016L112.746 136.82L114.061 141.725L111.909 142.301L108.793 130.67L110.944 130.094L112.231 134.897L118.965 133.093L117.678 128.289L119.829 127.713Z" fill="white"/>
<path d="M126.952 138.271L123.835 126.64L125.987 126.063L128.256 134.533L132.72 124.259L134.872 123.682L137.988 135.314L135.837 135.89L133.567 127.42L129.103 137.694L126.952 138.271Z" fill="white"/>
<path d="M147.497 130.95C149.725 130.353 150.743 128.048 150.147 125.823C149.551 123.598 147.517 122.111 145.288 122.708C143.286 123.244 141.775 125.111 142.514 127.868C143.252 130.624 145.494 131.486 147.497 130.95ZM143.377 139.399L138.878 122.609L141.03 122.032L141.369 123.296C141.963 122.107 143.195 121.1 144.821 120.664C148.6 119.651 151.439 122.034 152.3 125.246C153.16 128.457 151.893 131.94 148.113 132.953C146.487 133.388 144.917 133.132 143.808 132.399L145.529 138.822L143.377 139.399Z" fill="white"/>
<path d="M163.621 122.645L159.968 123.624C158.19 124.101 157.252 125.002 157.591 126.267C157.929 127.531 159.186 127.818 160.839 127.375C163.166 126.751 164.292 125.149 163.824 123.404L163.621 122.645ZM165.239 120.071L167.224 127.48L165.071 128.057L164.732 126.792C164.097 128.02 162.932 128.982 161.155 129.458C158.452 130.182 156.137 129.448 155.439 126.844C154.687 124.037 156.832 122.433 159.484 121.722L163.113 120.749C162.598 118.827 160.958 118.509 159.056 119.019C157.678 119.388 156.432 120.343 156.281 121.577L153.902 122.214C153.935 119.631 155.86 117.706 158.514 116.995C161.767 116.123 164.46 117.163 165.239 120.071Z" fill="white"/>
</g>
<defs>
<clipPath id="clip0_24_330">
<rect width="177.662" height="177.662" fill="white" transform="translate(0 45.9823) rotate(-15)"/>
</clipPath>
</defs>
</svg>
