<svg width="324" height="27" viewBox="0 0 324 27" fill="none" xmlns="http://www.w3.org/2000/svg">
<g clip-path="url(#clip0_2_254)">
<path d="M37.0698 0.551966L28.6938 22.2201H33.2041L34.9214 17.7168H43.8125L45.5298 22.2201H49.9973L41.6641 0.551966H37.0698ZM39.389 6.1165L42.3099 13.7229H36.4667L39.389 6.1165Z" fill="black"/>
<mask id="mask0_2_254" style="mask-type:luminance" maskUnits="userSpaceOnUse" x="0" y="-1" width="324" height="28">
<path d="M0 -0.000396729H324V27H0V-0.000396729Z" fill="white"/>
</mask>
<g mask="url(#mask0_2_254)">
<path d="M89.0867 6.71202C84.7059 6.71202 81.1404 10.2387 81.1404 14.5718C81.1404 18.9062 84.7059 22.4316 89.0867 22.4316C93.4675 22.4316 97.0329 18.8627 97.0329 14.5718C97.0329 10.2387 93.4675 6.71202 89.0867 6.71202ZM89.0867 18.4377C86.9396 18.4377 85.2209 16.739 85.2209 14.614C85.2209 12.4904 86.9396 10.7904 89.0867 10.7904C91.235 10.7904 92.9524 12.4904 92.9524 14.614C92.9524 16.739 91.235 18.4377 89.0867 18.4377Z" fill="black"/>
<path d="M55.3677 16.6116L51.7595 7.00965H47.4641L53.3061 22.2197H57.5588L63.314 7.00965H59.0186L55.3677 16.6116Z" fill="black"/>
<path d="M76.8016 2.97338H72.7211V7.00952H70.3152V10.6207H72.7211V17.0787C72.7211 20.7321 74.7827 22.3054 77.6183 22.3054C78.7352 22.3054 79.6799 22.0929 80.4525 21.7524V18.0132C80.4525 18.0132 79.7653 18.2679 78.95 18.2679C77.7037 18.2679 76.8016 17.8007 76.8016 16.1443V10.5784H80.4525V6.96728H76.8016V2.97338Z" fill="black"/>
<path d="M66.6646 5.90466C68.3019 5.90466 69.6283 4.59272 69.6283 2.97325C69.6283 1.35378 68.3019 0.041841 66.6646 0.041841C65.0273 0.041841 63.7009 1.35378 63.7009 2.97325C63.7009 4.59272 65.0273 5.90466 66.6646 5.90466Z" fill="black"/>
<path d="M68.7263 7.00939H64.6458V22.2195H68.7263V7.00939Z" fill="black"/>
<path d="M7.94628 24.3439C12.3351 24.3439 15.8926 20.8252 15.8926 16.4841C15.8926 12.1431 12.3351 8.62436 7.94628 8.62436C3.55748 8.62436 0 12.1431 0 16.4841C0 20.8252 3.55748 24.3439 7.94628 24.3439Z" fill="#5DBF89"/>
<path d="M21.7775 23.3668C24.4343 23.3668 26.588 21.2366 26.588 18.6087C26.588 15.9809 24.4343 13.8493 21.7775 13.8493C19.1207 13.8493 16.967 15.9809 16.967 18.6087C16.967 21.2366 19.1207 23.3668 21.7775 23.3668Z" fill="#F04E58"/>
<path d="M9.44976 7.56187C11.0871 7.56187 12.4134 6.24993 12.4134 4.63046C12.4134 3.01099 11.0871 1.69905 9.44976 1.69905C7.81247 1.69905 6.48608 3.01099 6.48608 4.63046C6.48608 6.24993 7.81247 7.56187 9.44976 7.56187Z" fill="#8071B4"/>
<path d="M19.8873 12.8304C23.4688 12.8304 26.3738 9.95835 26.3738 6.41452C26.3738 2.87202 23.4688 0 19.8873 0C16.3058 0 13.4009 2.87202 13.4009 6.41452C13.4009 9.95835 16.3058 12.8304 19.8873 12.8304Z" fill="#00BDF2"/>
<path d="M107.792 22.3272H111.245V12.4982H121.412V22.3272H124.865V0.412191H121.412V9.46776H111.245V0.412191H107.792V22.3272Z" fill="black"/>
<path d="M135.886 19.9101C133.475 19.9101 131.586 18.2022 131.195 15.6232H143.609L143.641 14.9144C143.869 10.1128 140.318 6.66398 135.886 6.66398C131.455 6.66398 127.969 10.0481 127.969 14.6571C127.969 19.266 131.455 22.6171 135.886 22.6171C139.046 22.6171 141.654 21.4253 143.152 18.5889L140.643 17.1067C139.536 19.0073 137.972 19.9101 135.886 19.9101ZM131.325 13.0138C131.911 10.7899 133.703 9.37102 135.886 9.37102C138.167 9.37102 139.796 10.7899 140.253 13.0138H131.325Z" fill="black"/>
<path d="M145.312 19.6523L144.661 19.684V27H147.821V22.3277H159.649V27H162.809V19.684H160.594V6.95527H148.506L148.408 12.2717C148.309 17.332 147.365 19.556 145.312 19.6523ZM149.613 19.684C150.754 18.2348 151.274 16.0425 151.34 12.4974L151.405 9.66231H157.335V19.684H149.613Z" fill="black"/>
<path d="M165.28 22.3272H173.133C176.944 22.3272 178.9 20.1995 178.9 17.7512C178.9 16.1067 177.922 14.9465 176.326 14.3341C177.629 13.6583 178.476 12.3371 178.476 10.8219C178.476 8.56629 176.781 6.95474 172.937 6.95474H165.28V22.3272ZM168.539 9.43608H172.709C174.338 9.43608 175.217 10.2095 175.217 11.338C175.217 12.4652 174.338 13.3363 172.709 13.3363H168.539V9.43608ZM168.539 19.8458V15.6883H173.034C174.566 15.6883 175.576 16.4617 175.576 17.7182C175.576 18.976 174.566 19.8458 173.034 19.8458H168.539Z" fill="black"/>
<path d="M181.921 22.3272H184.984L192.641 11.3697V22.3272H195.834V6.95474H192.771L185.115 17.9122V6.95474H181.921V22.3272Z" fill="black"/>
<path d="M207.563 6.95461V13.6899L201.796 6.95461H198.211L204.37 14.0766L198.146 22.327H201.893L207.563 14.8183V22.327H210.56V14.8183L216.23 22.327H219.977L213.753 14.0766L219.911 6.95461H216.327L210.56 13.6899V6.95461H207.563Z" fill="black"/>
<path d="M222.3 22.3272H225.362L233.019 11.3697V22.3272H236.212V6.95474H233.149L225.493 17.9122V6.95474H222.3V22.3272Z" fill="black"/>
<path d="M254.099 22.3272H257.292V6.95474H254.099L248.657 15.914L243.183 6.95474H239.99V22.3272H243.183V12.2078L247.583 19.3628H249.733L254.099 12.2078V22.3272Z" fill="black"/>
<path d="M268.45 22.6173C272.882 22.6173 276.661 19.2661 276.661 14.6572C276.661 10.0482 272.882 6.6641 268.45 6.6641C264.019 6.6641 260.24 10.0482 260.24 14.6572C260.24 19.2661 264.019 22.6173 268.45 22.6173ZM268.45 19.7809C265.648 19.7809 263.562 17.4936 263.562 14.6572C263.562 11.8208 265.648 9.50049 268.45 9.50049C271.252 9.50049 273.338 11.8208 273.338 14.6572C273.338 17.4936 271.252 19.7809 268.45 19.7809Z" fill="black"/>
<path d="M286.969 22.6173C290.064 22.6173 292.573 21.1351 293.974 18.3317L291.465 16.9128C290.455 18.6537 288.923 19.7162 286.969 19.7162C284.264 19.7162 282.081 17.4936 282.081 14.6572C282.081 11.8208 284.264 9.56516 286.969 9.56516C288.729 9.56516 290.422 10.596 291.237 12.1758L293.941 10.79C292.638 8.1793 290.259 6.6641 286.969 6.6641C282.537 6.6641 278.758 10.0482 278.758 14.6572C278.758 19.2661 282.537 22.6173 286.969 22.6173Z" fill="black"/>
<path d="M300.536 22.3272H303.795V9.66178H308.812V6.95474H295.519V9.66178H300.536V22.3272Z" fill="black"/>
<path d="M311.424 22.3272H317.614C321.46 22.3272 324 19.9752 324 16.7837C324 13.723 321.46 11.3697 317.614 11.3697H314.682V6.95474H311.424V22.3272ZM314.682 19.7165V13.9804H317.549C319.406 13.9804 320.742 15.1405 320.742 16.7837C320.742 18.5246 319.406 19.7165 317.614 19.7165H314.682Z" fill="black"/>
</g>
</g>
<defs>
<clipPath id="clip0_2_254">
<rect width="324" height="27" fill="white"/>
</clipPath>
</defs>
</svg>
