<svg width="33" height="32" viewBox="0 0 33 32" fill="none" xmlns="http://www.w3.org/2000/svg">
<path d="M29.8334 29.3333H3.16675C2.62008 29.3333 2.16675 28.88 2.16675 28.3333C2.16675 27.7866 2.62008 27.3333 3.16675 27.3333H29.8334C30.3801 27.3333 30.8334 27.7866 30.8334 28.3333C30.8334 28.88 30.3801 29.3333 29.8334 29.3333Z" fill="#292929"/>
<path d="M13.5 5.33335V29.3334H19.5V5.33335C19.5 3.86669 18.9 2.66669 17.1 2.66669H15.9C14.1 2.66669 13.5 3.86669 13.5 5.33335Z" fill="#292929"/>
<path opacity="0.4" d="M4.5 13.3334V29.3334H9.83333V13.3334C9.83333 11.8667 9.3 10.6667 7.7 10.6667H6.63333C5.03333 10.6667 4.5 11.8667 4.5 13.3334Z" fill="#292929"/>
<path opacity="0.4" d="M23.1667 20V29.3333H28.5001V20C28.5001 18.5333 27.9667 17.3333 26.3667 17.3333H25.3001C23.7001 17.3333 23.1667 18.5333 23.1667 20Z" fill="#292929"/>
</svg>
